<svg version="1.1" id="Layer_1" xmlns="http://www.w3.org/2000/svg" xmlns:xlink="http://www.w3.org/1999/xlink" x="0px" y="0px"
	 width="100%" viewBox="0 0 1036 1080" enable-background="new 0 0 1036 1080" xml:space="preserve">
<path fill="#444444" opacity="1.000000" stroke="none" 
	d="
M1037.000000,720.000000 
	C1037.000000,811.020874 1037.000000,902.041809 1036.700317,993.377686 
	C1035.779785,992.920715 1035.080566,992.198730 1034.549683,991.369202 
	C1025.550415,977.309082 1013.627625,966.487000 998.768555,958.871399 
	C980.303955,949.407959 960.346680,946.825500 940.071777,947.320374 
	C913.779053,947.962097 888.302185,953.767883 863.271301,961.696350 
	C833.187805,971.225281 804.039551,983.085083 776.235413,997.927673 
	C750.707031,1011.555481 725.693420,1026.153931 700.565552,1040.521484 
	C692.346252,1045.221069 685.024048,1051.923218 676.356140,1055.327759 
	C643.333130,1068.298096 608.904846,1075.796021 573.565979,1079.099976 
	C571.998474,1079.246460 570.519958,1080.344971 569.000000,1081.000000 
	C547.312439,1081.000000 525.624878,1081.000000 503.397949,1080.616821 
	C501.972168,1079.857788 501.117249,1079.279907 500.194733,1079.136230 
	C484.749756,1076.732178 469.108887,1075.215454 453.895935,1071.793091 
	C437.712341,1068.152222 421.275726,1064.246704 406.116547,1057.738525 
	C377.066711,1045.266846 348.748413,1031.065552 320.299957,1017.225464 
	C284.960297,1000.032715 249.643478,982.779968 214.601349,964.992493 
	C182.380173,948.636841 150.467377,931.667847 118.548454,914.724609 
	C93.991638,901.689270 69.162674,889.037781 47.800808,870.827698 
	C24.984093,851.377441 8.036685,828.333252 2.979231,797.944580 
	C2.802505,796.882629 1.681099,795.977966 0.999994,795.000000 
	C1.000000,782.312439 1.000000,769.624878 1.387806,756.405273 
	C2.167699,754.821045 2.727552,753.799683 2.926408,752.712219 
	C5.437387,738.981567 6.972827,724.997498 10.526756,711.545532 
	C26.811750,649.905273 65.704933,608.369019 124.748032,585.253845 
	C151.635696,574.727295 179.652893,569.236206 208.341232,566.847046 
	C240.145035,564.198242 271.849426,564.970032 303.445831,569.597168 
	C307.092224,570.131165 310.773407,570.427185 315.769897,570.981201 
	C313.890839,568.348511 312.969910,566.814758 311.817719,565.480713 
	C296.171204,547.364258 283.387909,527.309082 272.222534,506.229919 
	C249.540054,463.407562 236.211258,417.766235 233.323425,369.396820 
	C231.615356,340.787750 232.625580,312.201660 237.938324,283.826202 
	C246.830536,236.332779 264.612854,192.555618 291.622681,152.571503 
	C309.522278,126.073769 330.836243,102.578575 355.375610,82.015732 
	C383.429810,58.507610 414.399719,39.900131 448.307220,26.143906 
	C478.133911,14.043280 509.178497,6.879282 541.060791,3.016718 
	C542.435120,2.850212 543.689636,1.694759 545.000000,0.999996 
	C565.020874,1.000000 585.041809,1.000000 605.604370,1.382843 
	C607.206787,2.135691 608.247437,2.750644 609.331177,2.839447 
	C629.979675,4.531408 650.210632,8.473394 670.135620,14.058454 
	C725.640808,29.616848 774.033508,57.713039 815.597107,97.467857 
	C840.789612,121.564003 861.667053,149.073593 878.537231,179.666687 
	C905.104553,227.844788 919.067200,279.416351 920.904480,334.309753 
	C922.168335,372.071747 917.651184,409.181885 906.521240,445.296539 
	C890.364014,497.723175 863.507690,543.981140 825.441345,583.668152 
	C799.851379,610.347778 770.896362,632.580200 738.230164,649.805115 
	C687.993591,676.294739 635.192749,695.887268 579.472839,707.286438 
	C558.265747,711.624939 537.007324,716.289062 515.247803,715.970581 
	C486.157867,715.544739 457.787842,718.913696 430.240479,728.581848 
	C406.951263,736.755554 386.121857,748.920349 368.411224,766.172241 
	C349.029785,785.051636 335.838287,807.796204 327.551788,833.403931 
	C321.189423,853.065552 319.395172,872.790771 324.914642,893.287842 
	C337.426758,939.752563 363.132660,976.361938 403.612640,1002.489258 
	C420.231262,1013.215515 437.998505,1021.443542 457.249756,1027.043457 
	C457.990204,1027.322510 458.532288,1027.397095 459.387634,1027.572266 
	C460.133545,1027.741089 460.566162,1027.809448 461.282867,1028.114014 
	C469.196289,1030.338257 476.825623,1032.326416 484.454956,1034.314453 
	C484.598175,1033.809204 484.741364,1033.303955 484.884583,1032.798706 
	C476.903931,1029.594727 468.923309,1026.390747 460.638672,1023.005615 
	C402.994904,994.285522 361.385925,951.263428 337.353729,891.021423 
	C351.158630,889.631104 363.561005,888.475464 375.941132,887.117249 
	C409.733185,883.409912 442.487610,875.418823 474.136810,862.986755 
	C509.098114,849.253601 542.418884,832.050232 575.362122,814.177551 
	C602.439209,799.487488 629.214111,784.196045 655.649780,768.380310 
	C683.231201,751.879089 710.287781,734.601562 740.044800,721.985046 
	C801.936096,695.744080 865.781067,681.665100 933.352722,688.972900 
	C961.011353,691.964111 987.830994,698.260681 1013.462036,709.200623 
	C1021.398621,712.588135 1029.158936,716.388611 1037.000000,720.000000 
M302.279846,233.773941 
	C278.945679,291.419556 273.632019,350.833893 287.871613,411.222534 
	C308.604401,499.148376 359.391693,565.064026 439.031372,607.629761 
	C503.764771,642.228516 572.728577,650.360657 644.151611,633.957947 
	C702.377380,620.585999 752.330933,591.817200 792.803955,547.815430 
	C855.218628,479.958893 881.023132,399.628937 870.467102,308.169495 
	C864.007751,252.204147 842.373474,202.032990 806.359619,158.673340 
	C748.888062,89.479279 674.836853,52.477707 584.882080,49.517601 
	C513.650269,47.173607 449.582611,68.760643 393.446381,112.842072 
	C352.646118,144.880844 322.305237,185.010391 302.279846,233.773941 
M243.400146,878.060913 
	C255.631622,883.551331 267.863098,889.041809 280.834473,894.864441 
	C280.834473,879.212769 280.889160,864.452454 280.710907,849.694946 
	C280.699097,848.715332 279.084106,847.407898 277.926880,846.849670 
	C272.985474,844.465881 267.945801,842.283813 262.923645,840.069763 
	C253.836868,836.063843 244.737030,832.087585 234.984787,827.810425 
	C234.984787,842.314148 235.099823,856.091248 234.902695,869.863831 
	C234.854309,873.244263 235.789337,875.205200 239.093994,876.066467 
	C240.358429,876.395996 241.504196,877.180908 243.400146,878.060913 
M265.183044,789.238220 
	C271.913605,792.100342 278.698761,794.843140 285.348663,797.881775 
	C288.118958,799.147583 289.679596,798.844177 291.444427,796.178650 
	C295.848389,789.527039 300.622589,783.120728 305.245270,776.613892 
	C308.375519,772.207703 311.500824,767.798157 314.956604,762.927429 
	C300.883911,755.797058 287.436737,748.983643 273.688110,742.017456 
	C264.560974,755.283203 255.644226,768.243103 246.560287,781.445984 
	C252.854218,784.081787 258.663971,786.514771 265.183044,789.238220 
M79.064125,809.280151 
	C78.561012,802.635254 77.932961,795.996460 77.608429,789.342834 
	C77.450394,786.103027 76.333443,784.462097 73.027840,783.385925 
	C63.542553,780.297729 54.229477,776.681580 44.840931,773.294495 
	C42.407776,772.416748 39.946079,771.617981 35.982670,770.266296 
	C37.449673,782.150574 38.366032,792.912537 40.206528,803.513977 
	C41.932285,813.454407 47.621254,820.083801 57.967430,822.838806 
	C65.574768,824.864563 72.805565,828.304260 80.730659,831.313843 
	C80.153625,823.781860 79.633896,816.997803 79.064125,809.280151 
M77.940247,725.528870 
	C82.894737,727.804932 87.849228,730.080994 93.102852,732.494446 
	C99.326096,722.273865 105.316940,712.434998 111.515884,702.254333 
	C98.077080,694.710571 85.230385,687.499207 72.090904,680.123474 
	C64.209229,690.812195 56.579601,701.159119 48.673878,711.880493 
	C58.598114,716.499695 67.932045,720.844116 77.940247,725.528870 
M863.861145,879.487427 
	C849.182739,884.529175 834.504333,889.570984 819.513123,894.720215 
	C824.885498,905.831604 829.916809,916.237610 835.010437,926.772461 
	C848.918213,922.952576 862.310669,919.274231 876.249573,915.445801 
	C872.989380,903.367310 869.860168,891.700073 866.620117,880.063721 
	C866.500183,879.632874 865.297485,879.503540 863.861145,879.487427 
M130.744308,647.682678 
	C136.982666,650.843689 143.368393,653.751465 149.402466,657.263428 
	C152.859940,659.275818 155.060562,659.107849 158.067291,656.352661 
	C166.597443,648.536072 175.230576,640.752197 186.919891,636.066589 
	C174.451523,628.660095 162.522812,621.474670 150.435165,614.567505 
	C149.376358,613.962524 146.965927,614.744873 145.709885,615.630066 
	C139.859909,619.752686 134.182022,624.120850 128.468384,628.435242 
	C123.881584,631.898682 119.331764,635.411072 114.262794,639.286072 
	C120.026001,642.222717 125.052475,644.783875 130.744308,647.682678 
M863.893494,758.356812 
	C869.248596,756.704651 874.603699,755.052490 880.508301,753.230774 
	C875.743774,741.818604 871.158630,730.836060 866.365051,719.354248 
	C851.735901,724.505127 837.427795,729.542969 822.612061,734.759583 
	C828.283813,744.905762 833.470581,754.359192 838.927124,763.654297 
	C839.430054,764.510864 841.803284,764.917847 843.050781,764.580933 
	C849.789673,762.760742 856.447510,760.640076 863.893494,758.356812 
M759.165283,962.349426 
	C759.976257,963.511780 760.787292,964.674133 761.674377,965.945618 
	C773.875000,959.626953 785.725281,953.489685 797.831726,947.219788 
	C791.139221,936.143860 784.900513,925.818787 778.476501,915.187134 
	C765.651001,923.411804 753.271912,931.350220 740.575562,939.492065 
	C746.830200,947.128235 752.815735,954.435913 759.165283,962.349426 
M731.669556,818.195984 
	C733.141052,817.713501 734.612549,817.230957 736.441345,816.631287 
	C729.973633,806.993347 723.959717,797.815125 717.627441,788.862122 
	C716.810547,787.707153 714.198975,787.004944 712.667725,787.316528 
	C706.807190,788.509277 701.046814,790.195679 695.251892,791.708679 
	C688.142578,793.564880 681.036133,795.431885 673.257751,797.469910 
	C680.510559,807.044495 687.315491,815.847473 693.886230,824.821838 
	C695.655579,827.238525 697.278198,827.795410 700.153992,826.950745 
	C710.360107,823.953308 720.650391,821.242310 731.669556,818.195984 
M781.420715,751.041992 
	C770.066284,754.021851 758.711792,757.001648 746.810181,760.125061 
	C754.290955,770.029297 761.251587,779.347656 768.386597,788.530640 
	C769.092163,789.438660 771.037598,790.170166 772.114075,789.883118 
	C784.578125,786.559448 796.985596,783.023682 810.063171,779.360718 
	C803.013306,768.889160 796.363037,759.011292 789.668518,749.067566 
	C787.034790,749.706482 784.623962,750.291321 781.420715,751.041992 
M581.608154,905.233337 
	C584.598877,904.789246 584.011902,903.364807 582.747437,901.513977 
	C577.117249,893.272949 571.668335,884.903870 565.839355,876.807495 
	C564.938416,875.556091 562.211121,874.648743 560.651367,875.003174 
	C551.904236,876.990906 543.257263,879.418762 534.573853,881.687622 
	C530.347656,882.791870 526.116455,883.877441 521.308105,885.121460 
	C528.567871,894.720703 535.393188,903.510803 541.915405,912.520386 
	C543.746094,915.049194 545.430176,915.328369 548.198425,914.531494 
	C559.058350,911.405334 569.980835,908.496704 581.608154,905.233337 
M474.927399,943.308228 
	C483.194641,941.030518 491.461884,938.752869 500.461823,936.273315 
	C493.641907,926.174622 487.285645,916.686951 480.786865,907.297913 
	C480.319366,906.622437 478.698883,906.218628 477.804871,906.443909 
	C464.486176,909.800232 451.199585,913.283997 437.970215,916.720886 
	C438.026245,917.457397 437.932465,917.858032 438.090942,918.070557 
	C442.465393,923.936707 446.832245,929.809082 451.272888,935.625061 
	C454.183716,939.437439 456.548004,945.071167 460.366241,946.390869 
	C464.171539,947.706238 469.485779,944.656250 474.927399,943.308228 
M646.037537,835.414185 
	C644.411072,831.812500 641.989441,830.792969 638.084106,832.178711 
	C633.710022,833.730713 629.111694,834.650635 624.610291,835.843384 
	C616.718811,837.934326 608.826904,840.023376 600.375305,842.261536 
	C607.790710,852.069336 614.533386,861.138794 621.510681,870.023926 
	C622.381653,871.132996 624.698669,872.061768 626.001038,871.728271 
	C638.382202,868.558105 650.688904,865.096863 663.658630,861.543579 
	C657.742493,852.784912 652.082703,844.405640 646.037537,835.414185 
M632.266113,1032.764282 
	C637.859436,1030.828125 643.452759,1028.891846 649.539795,1026.784790 
	C643.493958,1016.485901 637.750244,1006.701721 632.007141,996.918518 
	C615.943665,1002.931702 600.513062,1008.707947 584.241455,1014.799072 
	C590.479736,1019.938293 596.449341,1023.969543 601.309204,1029.060303 
	C609.300903,1037.431885 617.725281,1040.393433 628.216003,1034.098633 
	C629.188904,1033.514771 630.399841,1033.327637 632.266113,1032.764282 
M383.004028,710.520874 
	C376.529144,705.859253 369.730530,701.577637 363.677551,696.420776 
	C358.440887,691.959351 354.178467,691.319458 348.005554,695.036011 
	C337.445557,701.393860 326.227356,706.658447 314.526794,712.779114 
	C325.578094,719.303772 335.813232,725.421631 346.163239,731.338562 
	C347.175842,731.917480 349.138885,731.707886 350.249542,731.105774 
	C360.908417,725.327393 371.493500,719.411682 382.043274,713.435669 
	C382.780701,713.017883 383.069061,711.807434 383.004028,710.520874 
M707.758240,964.663696 
	C706.783325,963.382751 705.808411,962.101807 704.821655,960.805420 
	C690.827271,967.443237 677.253174,973.881714 663.286011,980.506531 
	C669.988464,988.031128 676.106384,995.041138 682.446777,1001.843811 
	C683.267029,1002.723877 685.561707,1003.227478 686.624573,1002.730774 
	C698.508057,997.178955 710.283752,991.396423 722.485352,985.483582 
	C717.541016,978.510620 712.844788,971.887634 707.758240,964.663696 
M914.828186,874.036682 
	C913.614868,874.209045 912.401550,874.381409 910.929993,874.590515 
	C912.810303,885.301941 914.608643,895.546326 916.405212,905.780762 
	C929.450562,905.780762 942.044800,905.780762 955.264404,905.780762 
	C954.151611,896.418884 952.889099,887.406189 952.101562,878.352234 
	C951.801025,874.896484 950.606445,873.879822 947.241211,873.940796 
	C936.750793,874.131042 926.254944,874.025146 914.828186,874.036682 
M318.233521,963.221069 
	C313.442719,956.012085 308.700348,948.769897 303.816040,941.624817 
	C302.946899,940.353333 301.650879,938.907104 300.276611,938.520569 
	C288.193512,935.121643 276.048035,931.944580 264.157257,928.764954 
	C272.914032,951.271179 312.523865,983.160522 330.205139,981.366211 
	C326.292816,975.433899 322.464325,969.628662 318.233521,963.221069 
M920.095764,749.654053 
	C930.332642,750.411682 940.569580,751.169250 951.575684,751.983826 
	C948.198120,740.763550 945.014587,730.187866 941.733887,719.289551 
	C929.464478,720.166687 917.409973,721.028442 904.753967,721.933228 
	C908.562073,730.825745 912.057068,739.200562 915.804382,747.460938 
	C916.259094,748.463196 918.073364,748.848755 920.095764,749.654053 
M212.994171,599.570007 
	C207.864105,600.603271 202.734039,601.636536 196.162659,602.960144 
	C203.417984,607.179321 209.666183,610.079163 215.062744,614.117126 
	C223.923264,620.747009 232.631348,622.525513 242.227020,616.058716 
	C243.303574,615.333130 244.701370,615.093628 245.933533,614.588074 
	C254.943344,610.890869 263.948883,607.183228 272.955811,603.478943 
	C272.996521,602.954041 273.037262,602.429199 273.077972,601.904358 
	C268.580597,600.601624 264.156128,598.892090 259.572510,598.070740 
	C244.269882,595.328552 229.041412,597.221741 212.994171,599.570007 
M989.113159,900.531433 
	C990.001099,905.937317 990.638367,911.402710 991.901367,916.719482 
	C992.401245,918.823792 993.861206,921.257263 995.623596,922.409180 
	C1003.820496,927.766479 1012.267212,932.742493 1020.648376,937.815613 
	C1022.106689,938.698303 1023.679565,939.391663 1025.778809,940.470093 
	C1025.778809,935.397827 1025.184937,931.156494 1025.891724,927.144287 
	C1027.900024,915.743591 1023.716919,908.757935 1012.954590,904.195740 
	C1004.369995,900.556702 996.575195,895.054382 987.530884,889.863098 
	C988.132202,893.871765 988.568787,896.782104 989.113159,900.531433 
M999.858276,733.664612 
	C992.595825,731.167908 985.333374,728.671204 976.868958,725.761353 
	C978.866638,734.911621 980.445190,742.326782 982.156433,749.711121 
	C982.338745,750.497803 983.166504,751.331055 983.914368,751.760437 
	C991.789490,756.282166 999.774414,760.615784 1007.588989,765.238098 
	C1011.493835,767.547913 1015.109924,770.345947 1019.572632,773.415710 
	C1019.572632,768.106201 1019.133118,763.778748 1019.662842,759.573303 
	C1020.817810,750.403748 1016.189758,744.344482 1009.488831,739.345764 
	C1006.714233,737.276123 1003.539001,735.743286 999.858276,733.664612 
M393.334869,680.048157 
	C399.318298,685.052979 405.856415,689.539856 411.140137,695.198120 
	C417.286316,701.779907 423.307098,702.625793 431.149048,698.755127 
	C437.202606,695.766968 443.782990,693.846252 450.841553,691.182129 
	C437.590515,685.807373 423.471680,684.159058 415.801025,670.581909 
	C408.621796,673.095581 401.282501,675.641785 393.974701,678.275391 
	C393.474792,678.455566 393.210541,679.289612 393.334869,680.048157 
M118.183601,874.394043 
	C108.616089,868.679443 99.080177,862.910522 89.446548,857.309631 
	C88.019684,856.480042 85.902786,855.728943 84.499481,856.176880 
	C80.428032,857.476624 76.557251,859.405029 71.922958,861.378296 
	C88.291740,870.397888 103.985847,879.082031 119.749359,887.638367 
	C120.660713,888.133118 122.413658,888.018066 123.295189,887.446655 
	C125.727417,885.869873 127.904991,883.900269 130.521561,881.816589 
	C126.196838,879.219177 122.500214,876.998962 118.183601,874.394043 
z"/>
<path fill="#000000" opacity="1.000000" stroke="none" 
	d="
M457.051361,1026.838867 
	C437.998505,1021.443542 420.231262,1013.215515 403.612640,1002.489258 
	C363.132660,976.361938 337.426758,939.752563 324.914642,893.287842 
	C319.395172,872.790771 321.189423,853.065552 327.551788,833.403931 
	C335.838287,807.796204 349.029785,785.051636 368.411224,766.172241 
	C386.121857,748.920349 406.951263,736.755554 430.240479,728.581848 
	C457.787842,718.913696 486.157867,715.544739 515.247803,715.970581 
	C537.007324,716.289062 558.265747,711.624939 579.472839,707.286438 
	C635.192749,695.887268 687.993591,676.294739 738.230164,649.805115 
	C770.896362,632.580200 799.851379,610.347778 825.441345,583.668152 
	C863.507690,543.981140 890.364014,497.723175 906.521240,445.296539 
	C917.651184,409.181885 922.168335,372.071747 920.904480,334.309753 
	C919.067200,279.416351 905.104553,227.844788 878.537231,179.666687 
	C861.667053,149.073593 840.789612,121.564003 815.597107,97.467857 
	C774.033508,57.713039 725.640808,29.616848 670.135620,14.058454 
	C650.210632,8.473394 629.979675,4.531408 609.331177,2.839447 
	C608.247437,2.750644 607.206787,2.135691 606.073059,1.382843 
	C749.612000,1.000000 893.224060,1.000000 1037.000000,1.000000 
	C1037.000000,240.354202 1037.000000,479.708435 1037.000000,719.531372 
	C1029.158936,716.388611 1021.398621,712.588135 1013.462036,709.200623 
	C987.830994,698.260681 961.011353,691.964111 933.352722,688.972900 
	C865.781067,681.665100 801.936096,695.744080 740.044800,721.985046 
	C710.287781,734.601562 683.231201,751.879089 655.649780,768.380310 
	C629.214111,784.196045 602.439209,799.487488 575.362122,814.177551 
	C542.418884,832.050232 509.098114,849.253601 474.136810,862.986755 
	C442.487610,875.418823 409.733185,883.409912 375.941132,887.117249 
	C363.561005,888.475464 351.158630,889.631104 337.353729,891.021423 
	C361.385925,951.263428 402.994904,994.285522 460.650146,1023.394043 
	C460.976654,1025.268311 460.987701,1026.573120 460.998779,1027.877808 
	C460.566162,1027.809448 460.133545,1027.741089 459.292114,1027.381470 
	C458.272644,1027.006348 457.662018,1026.922607 457.051361,1026.838867 
z"/>
<path fill="#000000" opacity="1.000000" stroke="none" 
	d="
M544.531372,0.999996 
	C543.689636,1.694759 542.435120,2.850212 541.060791,3.016718 
	C509.178497,6.879282 478.133911,14.043280 448.307220,26.143906 
	C414.399719,39.900131 383.429810,58.507610 355.375610,82.015732 
	C330.836243,102.578575 309.522278,126.073769 291.622681,152.571503 
	C264.612854,192.555618 246.830536,236.332779 237.938324,283.826202 
	C232.625580,312.201660 231.615356,340.787750 233.323425,369.396820 
	C236.211258,417.766235 249.540054,463.407562 272.222534,506.229919 
	C283.387909,527.309082 296.171204,547.364258 311.817719,565.480713 
	C312.969910,566.814758 313.890839,568.348511 315.769897,570.981201 
	C310.773407,570.427185 307.092224,570.131165 303.445831,569.597168 
	C271.849426,564.970032 240.145035,564.198242 208.341232,566.847046 
	C179.652893,569.236206 151.635696,574.727295 124.748032,585.253845 
	C65.704933,608.369019 26.811750,649.905273 10.526756,711.545532 
	C6.972827,724.997498 5.437387,738.981567 2.926408,752.712219 
	C2.727552,753.799683 2.167699,754.821045 1.387806,755.936584 
	C1.000000,504.418091 1.000000,252.836166 1.000000,1.000000 
	C182.020813,1.000000 363.041748,1.000000 544.531372,0.999996 
z"/>
<path fill="#000000" opacity="1.000000" stroke="none" 
	d="
M0.999994,795.468628 
	C1.681099,795.977966 2.802505,796.882629 2.979231,797.944580 
	C8.036685,828.333252 24.984093,851.377441 47.800808,870.827698 
	C69.162674,889.037781 93.991638,901.689270 118.548454,914.724609 
	C150.467377,931.667847 182.380173,948.636841 214.601349,964.992493 
	C249.643478,982.779968 284.960297,1000.032715 320.299957,1017.225464 
	C348.748413,1031.065552 377.066711,1045.266846 406.116547,1057.738525 
	C421.275726,1064.246704 437.712341,1068.152222 453.895935,1071.793091 
	C469.108887,1075.215454 484.749756,1076.732178 500.194733,1079.136230 
	C501.117249,1079.279907 501.972168,1079.857788 502.929260,1080.616821 
	C335.759583,1081.000000 168.519150,1081.000000 1.000000,1081.000000 
	C1.000000,985.979309 1.000000,890.958313 0.999994,795.468628 
z"/>
<path fill="#000000" opacity="1.000000" stroke="none" 
	d="
M569.468628,1081.000000 
	C570.519958,1080.344971 571.998474,1079.246460 573.565979,1079.099976 
	C608.904846,1075.796021 643.333130,1068.298096 676.356140,1055.327759 
	C685.024048,1051.923218 692.346252,1045.221069 700.565552,1040.521484 
	C725.693420,1026.153931 750.707031,1011.555481 776.235413,997.927673 
	C804.039551,983.085083 833.187805,971.225281 863.271301,961.696350 
	C888.302185,953.767883 913.779053,947.962097 940.071777,947.320374 
	C960.346680,946.825500 980.303955,949.407959 998.768555,958.871399 
	C1013.627625,966.487000 1025.550415,977.309082 1034.549683,991.369202 
	C1035.080566,992.198730 1035.779785,992.920715 1036.700317,993.846375 
	C1037.000000,1022.977112 1037.000000,1051.954224 1037.000000,1081.000000 
	C881.312439,1081.000000 725.624878,1081.000000 569.468628,1081.000000 
z"/>
<path fill="#FDDF04" opacity="1.000000" stroke="none" 
	d="
M302.427124,233.420471 
	C322.305237,185.010391 352.646118,144.880844 393.446381,112.842072 
	C449.582611,68.760643 513.650269,47.173607 584.882080,49.517601 
	C674.836853,52.477707 748.888062,89.479279 806.359619,158.673340 
	C842.373474,202.032990 864.007751,252.204147 870.467102,308.169495 
	C881.023132,399.628937 855.218628,479.958893 792.803955,547.815430 
	C752.330933,591.817200 702.377380,620.585999 644.151611,633.957947 
	C572.728577,650.360657 503.764771,642.228516 439.031372,607.629761 
	C359.391693,565.064026 308.604401,499.148376 287.871613,411.222534 
	C273.632019,350.833893 278.945679,291.419556 302.427124,233.420471 
M723.336060,406.080811 
	C706.026855,399.700745 688.347961,399.078033 670.799561,404.229156 
	C614.597046,420.726837 591.431519,485.897522 624.273926,534.413879 
	C655.234497,580.150391 723.994080,583.665039 759.125732,541.306824 
	C797.208618,495.390320 779.757812,428.208405 723.336060,406.080811 
M511.122467,385.441528 
	C479.538147,340.859406 419.651703,337.773315 383.543396,370.925842 
	C337.215515,413.461334 351.256866,489.666534 409.701080,512.980225 
	C446.673920,527.728882 490.708771,514.330933 511.882751,480.714661 
	C531.584290,449.436035 531.057556,417.522949 511.122467,385.441528 
M451.853912,273.694824 
	C463.886475,279.910980 476.596252,283.118408 490.213379,283.432465 
	C546.198914,284.723755 588.820312,230.737473 574.115295,176.932251 
	C560.725159,127.938133 510.090485,101.133629 462.461884,118.746506 
	C430.080017,130.721222 410.929260,154.881790 407.374664,189.103287 
	C403.534607,226.072433 419.026031,254.395447 451.853912,273.694824 
M794.174072,224.470764 
	C785.838440,189.293732 764.471680,166.382339 729.187012,158.080048 
	C670.552185,144.283630 613.466492,195.802551 627.824524,260.133728 
	C639.373962,311.880981 694.305908,339.564850 743.299805,319.495605 
	C776.974487,305.701477 801.567810,269.967407 794.174072,224.470764 
M561.976013,319.487427 
	C553.420898,329.034271 549.347595,340.106171 550.743652,352.969513 
	C552.677612,370.788544 562.269592,383.011383 578.979980,388.835876 
	C596.131714,394.814209 611.829346,390.967621 624.190247,377.696808 
	C636.267944,364.730103 639.073120,349.045074 632.256348,332.688660 
	C620.268433,303.924438 585.314514,297.282104 561.976013,319.487427 
z"/>
<path fill="#FBFBFB" opacity="1.000000" stroke="none" 
	d="
M243.052094,877.909668 
	C241.504196,877.180908 240.358429,876.395996 239.093994,876.066467 
	C235.789337,875.205200 234.854309,873.244263 234.902695,869.863831 
	C235.099823,856.091248 234.984787,842.314148 234.984787,827.810425 
	C244.737030,832.087585 253.836868,836.063843 262.923645,840.069763 
	C267.945801,842.283813 272.985474,844.465881 277.926880,846.849670 
	C279.084106,847.407898 280.699097,848.715332 280.710907,849.694946 
	C280.889160,864.452454 280.834473,879.212769 280.834473,894.864441 
	C267.863098,889.041809 255.631622,883.551331 243.052094,877.909668 
z"/>
<path fill="#FBFBFB" opacity="1.000000" stroke="none" 
	d="
M264.828369,789.093018 
	C258.663971,786.514771 252.854218,784.081787 246.560287,781.445984 
	C255.644226,768.243103 264.560974,755.283203 273.688110,742.017456 
	C287.436737,748.983643 300.883911,755.797058 314.956604,762.927429 
	C311.500824,767.798157 308.375519,772.207703 305.245270,776.613892 
	C300.622589,783.120728 295.848389,789.527039 291.444427,796.178650 
	C289.679596,798.844177 288.118958,799.147583 285.348663,797.881775 
	C278.698761,794.843140 271.913605,792.100342 264.828369,789.093018 
z"/>
<path fill="#FBFBFB" opacity="1.000000" stroke="none" 
	d="
M79.089142,809.746948 
	C79.633896,816.997803 80.153625,823.781860 80.730659,831.313843 
	C72.805565,828.304260 65.574768,824.864563 57.967430,822.838806 
	C47.621254,820.083801 41.932285,813.454407 40.206528,803.513977 
	C38.366032,792.912537 37.449673,782.150574 35.982670,770.266296 
	C39.946079,771.617981 42.407776,772.416748 44.840931,773.294495 
	C54.229477,776.681580 63.542553,780.297729 73.027840,783.385925 
	C76.333443,784.462097 77.450394,786.103027 77.608429,789.342834 
	C77.932961,795.996460 78.561012,802.635254 79.089142,809.746948 
z"/>
<path fill="#FBFBFB" opacity="1.000000" stroke="none" 
	d="
M77.603119,725.358704 
	C67.932045,720.844116 58.598114,716.499695 48.673878,711.880493 
	C56.579601,701.159119 64.209229,690.812195 72.090904,680.123474 
	C85.230385,687.499207 98.077080,694.710571 111.515884,702.254333 
	C105.316940,712.434998 99.326096,722.273865 93.102852,732.494446 
	C87.849228,730.080994 82.894737,727.804932 77.603119,725.358704 
z"/>
<path fill="#FBFBFB" opacity="1.000000" stroke="none" 
	d="
M864.230225,879.360596 
	C865.297485,879.503540 866.500183,879.632874 866.620117,880.063721 
	C869.860168,891.700073 872.989380,903.367310 876.249573,915.445801 
	C862.310669,919.274231 848.918213,922.952576 835.010437,926.772461 
	C829.916809,916.237610 824.885498,905.831604 819.513123,894.720215 
	C834.504333,889.570984 849.182739,884.529175 864.230225,879.360596 
z"/>
<path fill="#FAFAFA" opacity="1.000000" stroke="none" 
	d="
M130.411636,647.513916 
	C125.052475,644.783875 120.026001,642.222717 114.262794,639.286072 
	C119.331764,635.411072 123.881584,631.898682 128.468384,628.435242 
	C134.182022,624.120850 139.859909,619.752686 145.709885,615.630066 
	C146.965927,614.744873 149.376358,613.962524 150.435165,614.567505 
	C162.522812,621.474670 174.451523,628.660095 186.919891,636.066589 
	C175.230576,640.752197 166.597443,648.536072 158.067291,656.352661 
	C155.060562,659.107849 152.859940,659.275818 149.402466,657.263428 
	C143.368393,653.751465 136.982666,650.843689 130.411636,647.513916 
z"/>
<path fill="#FBFBFB" opacity="1.000000" stroke="none" 
	d="
M863.513367,758.489868 
	C856.447510,760.640076 849.789673,762.760742 843.050781,764.580933 
	C841.803284,764.917847 839.430054,764.510864 838.927124,763.654297 
	C833.470581,754.359192 828.283813,744.905762 822.612061,734.759583 
	C837.427795,729.542969 851.735901,724.505127 866.365051,719.354248 
	C871.158630,730.836060 875.743774,741.818604 880.508301,753.230774 
	C874.603699,755.052490 869.248596,756.704651 863.513367,758.489868 
z"/>
<path fill="#FBFBFB" opacity="1.000000" stroke="none" 
	d="
M758.983276,962.046509 
	C752.815735,954.435913 746.830200,947.128235 740.575562,939.492065 
	C753.271912,931.350220 765.651001,923.411804 778.476501,915.187134 
	C784.900513,925.818787 791.139221,936.143860 797.831726,947.219788 
	C785.725281,953.489685 773.875000,959.626953 761.674377,965.945618 
	C760.787292,964.674133 759.976257,963.511780 758.983276,962.046509 
z"/>
<path fill="#FBFBFB" opacity="1.000000" stroke="none" 
	d="
M731.289185,818.309387 
	C720.650391,821.242310 710.360107,823.953308 700.153992,826.950745 
	C697.278198,827.795410 695.655579,827.238525 693.886230,824.821838 
	C687.315491,815.847473 680.510559,807.044495 673.257751,797.469910 
	C681.036133,795.431885 688.142578,793.564880 695.251892,791.708679 
	C701.046814,790.195679 706.807190,788.509277 712.667725,787.316528 
	C714.198975,787.004944 716.810547,787.707153 717.627441,788.862122 
	C723.959717,797.815125 729.973633,806.993347 736.441345,816.631287 
	C734.612549,817.230957 733.141052,817.713501 731.289185,818.309387 
z"/>
<path fill="#FBFBFB" opacity="1.000000" stroke="none" 
	d="
M781.816895,750.959106 
	C784.623962,750.291321 787.034790,749.706482 789.668518,749.067566 
	C796.363037,759.011292 803.013306,768.889160 810.063171,779.360718 
	C796.985596,783.023682 784.578125,786.559448 772.114075,789.883118 
	C771.037598,790.170166 769.092163,789.438660 768.386597,788.530640 
	C761.251587,779.347656 754.290955,770.029297 746.810181,760.125061 
	C758.711792,757.001648 770.066284,754.021851 781.816895,750.959106 
z"/>
<path fill="#FBFBFB" opacity="1.000000" stroke="none" 
	d="
M581.244141,905.370239 
	C569.980835,908.496704 559.058350,911.405334 548.198425,914.531494 
	C545.430176,915.328369 543.746094,915.049194 541.915405,912.520386 
	C535.393188,903.510803 528.567871,894.720703 521.308105,885.121460 
	C526.116455,883.877441 530.347656,882.791870 534.573853,881.687622 
	C543.257263,879.418762 551.904236,876.990906 560.651367,875.003174 
	C562.211121,874.648743 564.938416,875.556091 565.839355,876.807495 
	C571.668335,884.903870 577.117249,893.272949 582.747437,901.513977 
	C584.011902,903.364807 584.598877,904.789246 581.244141,905.370239 
z"/>
<path fill="#FAFAFA" opacity="1.000000" stroke="none" 
	d="
M474.532928,943.414185 
	C469.485779,944.656250 464.171539,947.706238 460.366241,946.390869 
	C456.548004,945.071167 454.183716,939.437439 451.272888,935.625061 
	C446.832245,929.809082 442.465393,923.936707 438.090942,918.070557 
	C437.932465,917.858032 438.026245,917.457397 437.970215,916.720886 
	C451.199585,913.283997 464.486176,909.800232 477.804871,906.443909 
	C478.698883,906.218628 480.319366,906.622437 480.786865,907.297913 
	C487.285645,916.686951 493.641907,926.174622 500.461823,936.273315 
	C491.461884,938.752869 483.194641,941.030518 474.532928,943.414185 
z"/>
<path fill="#FAFAFA" opacity="1.000000" stroke="none" 
	d="
M646.230225,835.720337 
	C652.082703,844.405640 657.742493,852.784912 663.658630,861.543579 
	C650.688904,865.096863 638.382202,868.558105 626.001038,871.728271 
	C624.698669,872.061768 622.381653,871.132996 621.510681,870.023926 
	C614.533386,861.138794 607.790710,852.069336 600.375305,842.261536 
	C608.826904,840.023376 616.718811,837.934326 624.610291,835.843384 
	C629.111694,834.650635 633.710022,833.730713 638.084106,832.178711 
	C641.989441,830.792969 644.411072,831.812500 646.230225,835.720337 
z"/>
<path fill="#FAFAFA" opacity="1.000000" stroke="none" 
	d="
M631.883179,1032.860352 
	C630.399841,1033.327637 629.188904,1033.514771 628.216003,1034.098633 
	C617.725281,1040.393433 609.300903,1037.431885 601.309204,1029.060303 
	C596.449341,1023.969543 590.479736,1019.938293 584.241455,1014.799072 
	C600.513062,1008.707947 615.943665,1002.931702 632.007141,996.918518 
	C637.750244,1006.701721 643.493958,1016.485901 649.539795,1026.784790 
	C643.452759,1028.891846 637.859436,1030.828125 631.883179,1032.860352 
z"/>
<path fill="#FAFAFA" opacity="1.000000" stroke="none" 
	d="
M383.285156,710.743225 
	C383.069061,711.807434 382.780701,713.017883 382.043274,713.435669 
	C371.493500,719.411682 360.908417,725.327393 350.249542,731.105774 
	C349.138885,731.707886 347.175842,731.917480 346.163239,731.338562 
	C335.813232,725.421631 325.578094,719.303772 314.526794,712.779114 
	C326.227356,706.658447 337.445557,701.393860 348.005554,695.036011 
	C354.178467,691.319458 358.440887,691.959351 363.677551,696.420776 
	C369.730530,701.577637 376.529144,705.859253 383.285156,710.743225 
z"/>
<path fill="#FAFAFA" opacity="1.000000" stroke="none" 
	d="
M707.953369,964.964111 
	C712.844788,971.887634 717.541016,978.510620 722.485352,985.483582 
	C710.283752,991.396423 698.508057,997.178955 686.624573,1002.730774 
	C685.561707,1003.227478 683.267029,1002.723877 682.446777,1001.843811 
	C676.106384,995.041138 669.988464,988.031128 663.286011,980.506531 
	C677.253174,973.881714 690.827271,967.443237 704.821655,960.805420 
	C705.808411,962.101807 706.783325,963.382751 707.953369,964.964111 
z"/>
<path fill="#FBFBFB" opacity="1.000000" stroke="none" 
	d="
M915.294678,874.035339 
	C926.254944,874.025146 936.750793,874.131042 947.241211,873.940796 
	C950.606445,873.879822 951.801025,874.896484 952.101562,878.352234 
	C952.889099,887.406189 954.151611,896.418884 955.264404,905.780762 
	C942.044800,905.780762 929.450562,905.780762 916.405212,905.780762 
	C914.608643,895.546326 912.810303,885.301941 910.929993,874.590515 
	C912.401550,874.381409 913.614868,874.209045 915.294678,874.035339 
z"/>
<path fill="#F9F9F9" opacity="1.000000" stroke="none" 
	d="
M318.434692,963.522278 
	C322.464325,969.628662 326.292816,975.433899 330.205139,981.366211 
	C312.523865,983.160522 272.914032,951.271179 264.157257,928.764954 
	C276.048035,931.944580 288.193512,935.121643 300.276611,938.520569 
	C301.650879,938.907104 302.946899,940.353333 303.816040,941.624817 
	C308.700348,948.769897 313.442719,956.012085 318.434692,963.522278 
z"/>
<path fill="#FAFAFA" opacity="1.000000" stroke="none" 
	d="
M919.676636,749.587097 
	C918.073364,748.848755 916.259094,748.463196 915.804382,747.460938 
	C912.057068,739.200562 908.562073,730.825745 904.753967,721.933228 
	C917.409973,721.028442 929.464478,720.166687 941.733887,719.289551 
	C945.014587,730.187866 948.198120,740.763550 951.575684,751.983826 
	C940.569580,751.169250 930.332642,750.411682 919.676636,749.587097 
z"/>
<path fill="#F9F9F9" opacity="1.000000" stroke="none" 
	d="
M213.420441,599.477905 
	C229.041412,597.221741 244.269882,595.328552 259.572510,598.070740 
	C264.156128,598.892090 268.580597,600.601624 273.077972,601.904358 
	C273.037262,602.429199 272.996521,602.954041 272.955811,603.478943 
	C263.948883,607.183228 254.943344,610.890869 245.933533,614.588074 
	C244.701370,615.093628 243.303574,615.333130 242.227020,616.058716 
	C232.631348,622.525513 223.923264,620.747009 215.062744,614.117126 
	C209.666183,610.079163 203.417984,607.179321 196.162659,602.960144 
	C202.734039,601.636536 207.864105,600.603271 213.420441,599.477905 
z"/>
<path fill="#F9F9F9" opacity="1.000000" stroke="none" 
	d="
M989.059204,900.111938 
	C988.568787,896.782104 988.132202,893.871765 987.530884,889.863098 
	C996.575195,895.054382 1004.369995,900.556702 1012.954590,904.195740 
	C1023.716919,908.757935 1027.900024,915.743591 1025.891724,927.144287 
	C1025.184937,931.156494 1025.778809,935.397827 1025.778809,940.470093 
	C1023.679565,939.391663 1022.106689,938.698303 1020.648376,937.815613 
	C1012.267212,932.742493 1003.820496,927.766479 995.623596,922.409180 
	C993.861206,921.257263 992.401245,918.823792 991.901367,916.719482 
	C990.638367,911.402710 990.001099,905.937317 989.059204,900.111938 
z"/>
<path fill="#F8F8F8" opacity="1.000000" stroke="none" 
	d="
M1000.202148,733.815430 
	C1003.539001,735.743286 1006.714233,737.276123 1009.488831,739.345764 
	C1016.189758,744.344482 1020.817810,750.403748 1019.662842,759.573303 
	C1019.133118,763.778748 1019.572632,768.106201 1019.572632,773.415710 
	C1015.109924,770.345947 1011.493835,767.547913 1007.588989,765.238098 
	C999.774414,760.615784 991.789490,756.282166 983.914368,751.760437 
	C983.166504,751.331055 982.338745,750.497803 982.156433,749.711121 
	C980.445190,742.326782 978.866638,734.911621 976.868958,725.761353 
	C985.333374,728.671204 992.595825,731.167908 1000.202148,733.815430 
z"/>
<path fill="#F8F8F8" opacity="1.000000" stroke="none" 
	d="
M393.085785,679.933838 
	C393.210541,679.289612 393.474792,678.455566 393.974701,678.275391 
	C401.282501,675.641785 408.621796,673.095581 415.801025,670.581909 
	C423.471680,684.159058 437.590515,685.807373 450.841553,691.182129 
	C443.782990,693.846252 437.202606,695.766968 431.149048,698.755127 
	C423.307098,702.625793 417.286316,701.779907 411.140137,695.198120 
	C405.856415,689.539856 399.318298,685.052979 393.085785,679.933838 
z"/>
<path fill="#F5F5F5" opacity="1.000000" stroke="none" 
	d="
M118.493599,874.586426 
	C122.500214,876.998962 126.196838,879.219177 130.521561,881.816589 
	C127.904991,883.900269 125.727417,885.869873 123.295189,887.446655 
	C122.413658,888.018066 120.660713,888.133118 119.749359,887.638367 
	C103.985847,879.082031 88.291740,870.397888 71.922958,861.378296 
	C76.557251,859.405029 80.428032,857.476624 84.499481,856.176880 
	C85.902786,855.728943 88.019684,856.480042 89.446548,857.309631 
	C99.080177,862.910522 108.616089,868.679443 118.493599,874.586426 
z"/>
<path fill="#0F0F0F" opacity="1.000000" stroke="none" 
	d="
M461.282867,1028.114014 
	C460.987701,1026.573120 460.976654,1025.268311 460.954102,1023.575195 
	C468.923309,1026.390747 476.903931,1029.594727 484.884583,1032.798706 
	C484.741364,1033.303955 484.598175,1033.809204 484.454956,1034.314453 
	C476.825623,1032.326416 469.196289,1030.338257 461.282867,1028.114014 
z"/>
<path fill="#0F0F0F" opacity="1.000000" stroke="none" 
	d="
M457.249756,1027.043457 
	C457.662018,1026.922607 458.272644,1027.006348 458.978821,1027.281006 
	C458.532288,1027.397095 457.990204,1027.322510 457.249756,1027.043457 
z"/>
<path fill="#50504B" opacity="1.000000" stroke="none" 
	d="
M723.702637,406.213684 
	C779.757812,428.208405 797.208618,495.390320 759.125732,541.306824 
	C723.994080,583.665039 655.234497,580.150391 624.273926,534.413879 
	C591.431519,485.897522 614.597046,420.726837 670.799561,404.229156 
	C688.347961,399.078033 706.026855,399.700745 723.702637,406.213684 
z"/>
<path fill="#50504B" opacity="1.000000" stroke="none" 
	d="
M511.327179,385.737488 
	C531.057556,417.522949 531.584290,449.436035 511.882751,480.714661 
	C490.708771,514.330933 446.673920,527.728882 409.701080,512.980225 
	C351.256866,489.666534 337.215515,413.461334 383.543396,370.925842 
	C419.651703,337.773315 479.538147,340.859406 511.327179,385.737488 
z"/>
<path fill="#50504B" opacity="1.000000" stroke="none" 
	d="
M451.528320,273.515350 
	C419.026031,254.395447 403.534607,226.072433 407.374664,189.103287 
	C410.929260,154.881790 430.080017,130.721222 462.461884,118.746506 
	C510.090485,101.133629 560.725159,127.938133 574.115295,176.932251 
	C588.820312,230.737473 546.198914,284.723755 490.213379,283.432465 
	C476.596252,283.118408 463.886475,279.910980 451.528320,273.515350 
z"/>
<path fill="#50504B" opacity="1.000000" stroke="none" 
	d="
M794.296387,224.886902 
	C801.567810,269.967407 776.974487,305.701477 743.299805,319.495605 
	C694.305908,339.564850 639.373962,311.880981 627.824524,260.133728 
	C613.466492,195.802551 670.552185,144.283630 729.187012,158.080048 
	C764.471680,166.382339 785.838440,189.293732 794.296387,224.886902 
z"/>
<path fill="#51504A" opacity="1.000000" stroke="none" 
	d="
M562.218872,319.229126 
	C585.314514,297.282104 620.268433,303.924438 632.256348,332.688660 
	C639.073120,349.045074 636.267944,364.730103 624.190247,377.696808 
	C611.829346,390.967621 596.131714,394.814209 578.979980,388.835876 
	C562.269592,383.011383 552.677612,370.788544 550.743652,352.969513 
	C549.347595,340.106171 553.420898,329.034271 562.218872,319.229126 
z"/>
</svg>